<svg xmlns="http://www.w3.org/2000/svg" width="32" height="32" viewBox="0 0 32 32"><rect width="32" height="32" fill="none"/><path d="M10 5h12l4 6-3 17H9L6 11l4-6z" fill="#8d98a6" stroke="#1b1d24" stroke-width="2"/><path d="M22 5l4 6-3 17h-4c2-7 3-15 0-23z" fill="#727d8b"/><path d="M10 13h12M9 18h14M10 23h12" stroke="#d6dde6" stroke-width="2"/><path d="M11 15.5c1 1.5 3 1.5 4 0 1 1.5 3 1.5 4 0M11 20.5c1 1.5 3 1.5 4 0 1 1.5 3 1.5 4 0" fill="none" stroke="#5e6874" stroke-width="1"/><path d="M13 6h6l-1 3h-4z" fill="#5e6874" stroke="#1b1d24" stroke-width="1"/><path d="M8 9l2-3" stroke="#e0e6ee" stroke-width="1.5" stroke-linecap="round"/></svg>
