<svg xmlns="http://www.w3.org/2000/svg" width="32" height="32" viewBox="0 0 32 32"><rect width="32" height="32" fill="none"/><path d="M8 6h16v20H8z" fill="#dce7ea" stroke="#1b1d24" stroke-width="2"/><path d="M8 6c-2 0-3 1-3 2s1 2 3 2M24 26c2 0 3-1 3-2s-1-2-3-2" fill="none" stroke="#1b1d24" stroke-width="2"/><path d="M16 10v12M11 13l10 6M21 13l-10 6" stroke="#3fa9d8" stroke-width="2" stroke-linecap="round"/><path d="M16 10l-2-2M16 10l2-2M16 22l-2 2M16 22l2 2" stroke="#7fd0ef" stroke-width="1.5" stroke-linecap="round"/><circle cx="16" cy="16" r="2" fill="#bfeaf8"/></svg>
